<?xml version="1.0" encoding="UTF-8" standalone="no"?>
<!DOCTYPE svg PUBLIC "-//W3C//DTD SVG 1.1//EN" "http://www.w3.org/Graphics/SVG/1.1/DTD/svg11.dtd">
<svg version="1.1" xmlns="http://www.w3.org/2000/svg" xmlns:xlink="http://www.w3.org/1999/xlink" preserveAspectRatio="xMidYMid meet" viewBox="0 0 640 640" width="640" height="640"><defs><path d="M366.33 250.85C358.95 253.52 354.34 255.19 352.5 255.86C330.25 263.92 310.84 278.29 296.64 297.22C295.24 299.09 291.75 303.74 286.17 311.18C286.17 302.09 286.17 256.64 286.17 174.82" id="bPbwFiqwS"></path><path d="M199.4 253.33C207.7 256.89 212.89 259.12 214.97 260.01C235.28 268.71 253.92 280.91 270.04 296.04C272.19 298.06 277.57 303.11 286.17 311.18" id="a1ORIKrKbw"></path><path d="M406.9 353.93C403.11 353.93 400.73 353.93 399.78 353.93C373.88 353.93 348.86 363.38 329.43 380.51C326.42 383.15 318.92 389.77 306.9 400.36L300.65 153.04" id="gdfDmWPTK"></path><path d="M210.92 355.71C216.72 357.01 220.34 357.82 221.79 358.15C248.73 364.19 273.98 376.16 295.71 393.2C297.38 394.51 301.56 397.79 308.24 403.04" id="b1v7LAhswD"></path></defs><g><g><g><use xlink:href="#bPbwFiqwS" opacity="1" fill="#000000" fill-opacity="0"></use><g><use xlink:href="#bPbwFiqwS" opacity="1" fill-opacity="0" stroke="#000000" stroke-width="1" stroke-opacity="0"></use></g></g><g><use xlink:href="#a1ORIKrKbw" opacity="1" fill="#000000" fill-opacity="0"></use><g><use xlink:href="#a1ORIKrKbw" opacity="1" fill-opacity="0" stroke="#000000" stroke-width="1" stroke-opacity="0"></use></g></g><g><g><use xlink:href="#gdfDmWPTK" opacity="1" fill-opacity="0" stroke="#194d33" stroke-width="10" stroke-opacity="1"></use></g></g><g><g><use xlink:href="#b1v7LAhswD" opacity="1" fill-opacity="0" stroke="#194d33" stroke-width="10" stroke-opacity="1"></use></g></g></g></g></svg>